<?xml version="1.0" encoding="utf-8"?>
<!-- Generator: Adobe Illustrator 16.0.0, SVG Export Plug-In . SVG Version: 6.00 Build 0)  -->
<!DOCTYPE svg PUBLIC "-//W3C//DTD SVG 1.1//EN" "http://www.w3.org/Graphics/SVG/1.1/DTD/svg11.dtd">
<svg version="1.1" id="Layer_1" xmlns="http://www.w3.org/2000/svg" xmlns:xlink="http://www.w3.org/1999/xlink" x="0px" y="0px"
	 width="50px" height="50px" viewBox="0 0 50 50" enable-background="new 0 0 50 50" xml:space="preserve">
<g>
	<g>
		<path fill="#FBCC2A" d="M20.29,26.579H6.001c-1.29,0-2.34-1.048-2.34-2.338v-6.386c0-1.29,1.05-2.339,2.34-2.339H20.29
			c1.29,0,2.339,1.049,2.339,2.339v6.386C22.629,25.531,21.58,26.579,20.29,26.579z"/>
		<path fill="#3F5CA9" d="M8.404,28.162H3.662v4.741h4.742V28.162z M6.823,31.32H5.242v-1.579h1.581V31.32z"/>
		<path fill="#3F5CA9" d="M15.517,28.162h-4.742v4.741h4.742V28.162L15.517,28.162z M13.936,31.32h-1.58v-1.579h1.58V31.32z"/>
		<path fill="#3F5CA9" d="M22.629,28.162h-4.742v4.741h4.742V28.162z M21.048,31.32h-1.581v-1.579h1.581V31.32z"/>
		<path fill="#3F5CA9" d="M8.404,34.482H3.662v4.741h4.742V34.482z M6.823,37.645H5.242v-1.579h1.581V37.645z"/>
		<path fill="#3F5CA9" d="M15.517,34.482h-4.742v4.741h4.742V34.482L15.517,34.482z M13.936,37.645h-1.58v-1.579h1.58V37.645z"/>
		<path fill="#3F5CA9" d="M22.629,34.482h-4.742v4.741h4.742V34.482z M21.048,37.645h-1.581v-1.579h1.581V37.645z"/>
		<path fill="#3F5CA9" d="M3.662,45.548h4.742v-4.741H3.662V45.548z M5.243,42.386h1.58v1.583h-1.58V42.386z"/>
		<path fill="#3F5CA9" d="M10.774,45.548h4.742v-4.741h-4.742V45.548z M12.355,42.386h1.58v1.583h-1.58V42.386z"/>
		<path fill="#3F5CA9" d="M17.887,45.548h4.742v-4.741h-4.742V45.548z M19.468,42.386h1.58v1.583h-1.58V42.386z"/>
		<path fill="#3F5CA9" d="M47.271,11.564h-21.48v-1.128c0-1.557-1.267-2.823-2.824-2.823h-1.918v1.581h1.918
			c0.685,0,1.243,0.559,1.243,1.242v1.128v18.177v16.026c0,1.188-0.965,2.153-2.151,2.153H4.232c-1.187,0-2.151-0.965-2.151-2.153
			V10.436c0-0.684,0.558-1.242,1.243-1.242h1.918V7.612H3.324c-1.556,0-2.823,1.266-2.823,2.823v35.332
			c0,2.058,1.674,3.732,3.732,3.732H22.06c2.058,0,3.731-1.675,3.731-3.732V29.741h21.48c1.229,0,2.229-1.001,2.229-2.229V13.791
			C49.5,12.563,48.5,11.564,47.271,11.564z M47.271,13.145c0.357,0,0.646,0.291,0.646,0.648v0.931H25.791v-1.579H47.271z
			 M47.271,28.162h-21.48V16.307h22.127v11.206C47.918,27.871,47.629,28.162,47.271,28.162z"/>
		<polygon fill="#FBCC2A" points="6.032,12.355 4.452,12.355 4.452,0.5 21.839,0.5 21.839,12.355 20.258,12.355 		"/>
		<rect x="3.662" y="11.564" fill="#3F5CA9" width="18.968" height="1.581"/>
		<rect x="7.613" y="3.661" fill="#3F5CA9" width="11.064" height="1.581"/>
		<rect x="11.565" y="6.822" fill="#3F5CA9" width="7.113" height="1.582"/>
		<path fill="#3F5CA9" d="M42.387,18.676c-0.723,0-1.393,0.211-1.975,0.55c-0.584-0.339-1.252-0.55-1.979-0.55
			c-2.176,0-3.951,1.774-3.951,3.952c0,2.179,1.775,3.952,3.951,3.952c0.727,0,1.395-0.207,1.979-0.55
			c0.582,0.343,1.252,0.55,1.975,0.55c2.18,0,3.951-1.772,3.951-3.952C46.338,20.45,44.566,18.676,42.387,18.676z M40.412,23.934
			c-0.252-0.373-0.395-0.823-0.395-1.306c0-0.482,0.143-0.929,0.395-1.304c0.248,0.375,0.395,0.821,0.395,1.304
			C40.807,23.11,40.66,23.561,40.412,23.934z M36.066,22.627c0-1.308,1.063-2.371,2.367-2.371c0.252,0,0.488,0.05,0.713,0.122
			c-0.445,0.638-0.713,1.412-0.713,2.249s0.268,1.611,0.713,2.251C38.922,24.95,38.686,25,38.434,25
			C37.129,25,36.066,23.936,36.066,22.627z M42.387,25c-0.248,0-0.484-0.05-0.711-0.122c0.447-0.64,0.711-1.414,0.711-2.251
			s-0.264-1.611-0.711-2.249c0.227-0.072,0.463-0.122,0.711-0.122c1.307,0,2.371,1.063,2.371,2.371
			C44.758,23.936,43.693,25,42.387,25z"/>
	</g>
</g>
</svg>
