<?xml version="1.0" encoding="utf-8"?>
<!-- Generator: Adobe Illustrator 16.0.0, SVG Export Plug-In . SVG Version: 6.00 Build 0)  -->
<!DOCTYPE svg PUBLIC "-//W3C//DTD SVG 1.1//EN" "http://www.w3.org/Graphics/SVG/1.1/DTD/svg11.dtd">
<svg version="1.1" id="Layer_1" xmlns="http://www.w3.org/2000/svg" xmlns:xlink="http://www.w3.org/1999/xlink" x="0px" y="0px"
	 width="50px" height="50px" viewBox="0 0 50 50" enable-background="new 0 0 50 50" xml:space="preserve">
<g>
	<g>
		<path fill="#FBCC2A" d="M8.306,2.903V3.63c0,1.201-0.977,2.178-2.177,2.178H5.403v33.385H6.13c1.2,0,2.178,0.978,2.178,2.179V42.1
			h13.063V2.903H8.306z M20.645,29.424c-0.688,0.217-1.419,0.334-2.177,0.334c-4.009,0-7.259-3.249-7.259-7.258
			s3.25-7.258,7.259-7.258c0.758,0,1.489,0.117,2.177,0.333V29.424z"/>
		<path fill="#3F5CA9" d="M43.871,0H2.5v45h21.048h0.726h19.597c1.998,0,3.629-1.628,3.629-3.629V3.629
			C47.5,1.628,45.869,0,43.871,0z M43.871,1.452c1.199,0,2.177,0.976,2.177,2.177v2.177H21.37V3.629
			c0-1.201,0.978-2.177,2.178-2.177H43.871L43.871,1.452L43.871,1.452z M19.918,28.869c-0.474,0.107-0.961,0.163-1.451,0.163
			c-3.602,0-6.533-2.931-6.533-6.532c0-3.601,2.932-6.532,6.533-6.532c0.49,0,0.977,0.055,1.451,0.162V28.869z M21.37,7.258h24.678
			v28.307H21.37V7.258z M3.952,1.452h16.712c-0.461,0.608-0.745,1.357-0.745,2.177v11.024c-0.476-0.088-0.962-0.137-1.451-0.137
			c-4.403,0-7.985,3.582-7.985,7.984c0,4.4,3.582,7.984,7.985,7.984c0.489,0,0.975-0.053,1.451-0.139V41.37
			c0,0.819,0.284,1.567,0.745,2.177H3.952V1.452z M43.871,43.548H24.273h-0.726c-1.201,0-2.178-0.978-2.178-2.177v-4.355h24.678
			v4.355C46.048,42.57,45.07,43.548,43.871,43.548z"/>
		<rect x="32.984" y="2.903" fill="#3F5CA9" width="5.806" height="1.452"/>
		<rect x="28.629" y="2.903" fill="#3F5CA9" width="1.451" height="1.452"/>
		<path fill="#3F5CA9" d="M33.709,37.742c-1.4,0-2.539,1.14-2.539,2.54c0,1.399,1.141,2.541,2.539,2.541
			c1.402,0,2.541-1.142,2.541-2.541C36.25,38.882,35.109,37.742,33.709,37.742z M33.709,41.371c-0.602,0-1.088-0.488-1.088-1.089
			s0.486-1.089,1.088-1.089s1.089,0.488,1.089,1.089S34.311,41.371,33.709,41.371z"/>
		<path fill="#3F5CA9" d="M43.145,8.709H24.273c-1.2,0-2.178,0.977-2.178,2.178V22.5c0,1.199,0.978,2.177,2.178,2.177h18.872
			c1.201,0,2.179-0.978,2.179-2.177V10.888C45.322,9.687,44.346,8.709,43.145,8.709z M24.273,10.162h18.872
			c0.399,0,0.728,0.325,0.728,0.726v6.532H23.548v-6.532C23.548,10.487,23.874,10.162,24.273,10.162z M43.871,18.871v1.451H23.548
			v-1.451H43.871z M43.145,23.225H24.273c-0.399,0-0.726-0.324-0.726-0.725v-0.727H43.87V22.5
			C43.871,22.899,43.545,23.225,43.145,23.225z"/>
		<rect x="25" y="11.612" fill="#3F5CA9" width="5.805" height="1.452"/>
		<rect x="27.177" y="13.79" fill="#3F5CA9" width="3.628" height="1.452"/>
		<path fill="#3F5CA9" d="M27.177,28.305h-2.903v5.81h1.451v-1.451h1.451c1.201,0,2.18-0.978,2.18-2.179
			C29.355,29.284,28.378,28.305,27.177,28.305z M27.177,31.21h-1.452v-1.452h1.452c0.4,0,0.728,0.326,0.728,0.727
			C27.904,30.886,27.577,31.21,27.177,31.21z"/>
		<path fill="#3F5CA9" d="M30.805,34.111h1.453v-1.45h2.178v1.45h1.449v-5.807h-5.08V34.111L30.805,34.111z M34.436,29.758v1.451
			h-2.178v-1.451H34.436z"/>
		<polygon fill="#3F5CA9" points="41.693,30.484 38.79,30.484 38.79,28.305 37.339,28.305 37.339,31.936 39.516,31.936 
			39.516,34.111 40.968,34.111 40.968,31.936 43.145,31.936 43.145,28.305 41.693,28.305 		"/>
	</g>
</g>
</svg>
