<?xml version="1.0" encoding="utf-8"?>
<!-- Generator: Adobe Illustrator 16.0.0, SVG Export Plug-In . SVG Version: 6.00 Build 0)  -->
<!DOCTYPE svg PUBLIC "-//W3C//DTD SVG 1.1//EN" "http://www.w3.org/Graphics/SVG/1.1/DTD/svg11.dtd">
<svg version="1.1" id="Layer_1" xmlns="http://www.w3.org/2000/svg" xmlns:xlink="http://www.w3.org/1999/xlink" x="0px" y="0px"
	 width="50px" height="50px" viewBox="0 0 50 50" enable-background="new 0 0 50 50" xml:space="preserve">
<g>
	<g>
		<path fill="#3F5CA9" d="M47.596,25.807h-1.629c-0.035-3.101-1.529-5.979-4.031-7.8v-4.7c0-1.557-1.267-2.823-2.821-2.823
			c-3.341,0-6.166,2.425-6.74,5.645H29.84v1.613h4.001l0.05-0.753c0.182-2.743,2.477-4.892,5.225-4.892
			c0.666,0,1.209,0.543,1.209,1.21v5.555l0.361,0.239c2.299,1.523,3.672,4.073,3.672,6.824v1.496h3.24
			c0.437,0,0.791,0.354,0.791,0.791v8.095c0,0.438-0.354,0.791-0.791,0.791h-3.406l-0.172,0.579
			c-0.787,2.681-2.855,4.749-5.535,5.536l-0.58,0.171v3.79c0,0.227-0.182,0.407-0.407,0.407h-8.058
			c-0.226,0-0.407-0.183-0.407-0.407V43.55h-8.064v3.624c0,0.225-0.183,0.407-0.408,0.407h-8.055c-0.225,0-0.408-0.183-0.408-0.407
			v-4.326l-0.433-0.227c-2.718-1.417-4.406-4.196-4.406-7.253v-9.443c0-4.005,2.861-7.397,6.803-8.065l-0.271-1.591
			c-4.719,0.801-8.145,4.862-8.145,9.657v2.303H4.69c0.09-0.254,0.148-0.522,0.148-0.807c0-1.334-1.085-2.42-2.419-2.42
			c-0.284,0-0.553,0.058-0.807,0.148v-2.568H0v4.839c0,1.334,1.085,2.419,2.419,2.419h3.226v5.528c0,3.493,1.842,6.685,4.839,8.442
			v3.361c0,1.115,0.907,2.021,2.021,2.021h8.055c1.115,0,2.021-0.906,2.021-2.021v-2.011h4.839v2.011
			c0,1.114,0.906,2.021,2.021,2.021h8.055c1.113,0,2.021-0.906,2.021-2.021v-2.604c2.735-0.989,4.871-3.125,5.86-5.86h2.22
			c1.324,0,2.403-1.078,2.403-2.403V28.21C50,26.886,48.921,25.807,47.596,25.807z M1.613,27.42c0-0.445,0.362-0.807,0.807-0.807
			c0.445,0,0.806,0.361,0.806,0.807c0,0.443-0.362,0.807-0.806,0.807C1.976,28.227,1.613,27.863,1.613,27.42z"/>
		<path fill="#EBEBEB" d="M21.774,21.774c-5.781,0-10.484-4.703-10.484-10.484c0-5.781,4.704-10.483,10.484-10.483
			c5.781,0,10.483,4.703,10.483,10.484S27.555,21.774,21.774,21.774z"/>
		<rect x="15.322" y="20.968" fill="#3F5CA9" width="12.903" height="1.613"/>
		<path fill="#FBCC2A" d="M26.613,9.677V8.468c0-2.001-1.629-3.629-3.629-3.629h-0.403V3.226h-1.613v1.613h-0.403
			c-2.001,0-3.629,1.628-3.629,3.629c0,2,1.628,3.629,3.629,3.629h2.419c1.111,0,2.016,0.905,2.016,2.016
			c0,1.111-0.905,2.016-2.016,2.016h-2.419c-1.111,0-2.017-0.905-2.017-2.016v-1.209h-1.613v1.209c0,2.001,1.628,3.629,3.629,3.629
			h0.403v1.613h1.613v-1.613h0.403c2,0,3.628-1.628,3.628-3.629c0-2.001-1.628-3.629-3.628-3.629h-2.419
			c-1.111,0-2.016-0.905-2.016-2.016c0-1.111,0.905-2.016,2.016-2.016h2.419C24.095,6.452,25,7.356,25,8.468v1.209H26.613z"/>
		<path fill="#3F5CA9" d="M33.744,24.629c0.008-0.013,0.814-1.242,2.547-1.242c1.697,0,2.516,1.196,2.546,1.242
			C38.991,24.869,39.252,25,39.518,25c0.148,0,0.299-0.041,0.435-0.127c0.375-0.24,0.483-0.739,0.243-1.115
			c-0.053-0.081-1.303-1.984-3.903-1.984c-2.603,0-3.854,1.903-3.905,1.984c-0.24,0.375-0.132,0.874,0.243,1.115
			C33.004,25.112,33.502,25.004,33.744,24.629z"/>
	</g>
</g>
</svg>
