<?xml version="1.0" encoding="utf-8"?>
<!-- Generator: Adobe Illustrator 16.0.0, SVG Export Plug-In . SVG Version: 6.00 Build 0)  -->
<!DOCTYPE svg PUBLIC "-//W3C//DTD SVG 1.1//EN" "http://www.w3.org/Graphics/SVG/1.1/DTD/svg11.dtd">
<svg version="1.1" id="Layer_1" xmlns="http://www.w3.org/2000/svg" xmlns:xlink="http://www.w3.org/1999/xlink" x="0px" y="0px"
	 width="50px" height="50px" viewBox="0 0 50 50" enable-background="new 0 0 50 50" xml:space="preserve">
<g>
	<g>
		<path fill="#EBEBEB" d="M22.581,8.064L13.71,5.648l-2.18,1.813c-0.685-1.026-1.046-2.221-1.046-3.454V2.019
			c0-1.112,0.904-2.016,2.016-2.016s2.016,0.904,2.016,2.016v0.807c0,0.222,0.181,0.403,0.403,0.403s0.403-0.182,0.403-0.403V2.019
			c0-1.112,0.904-2.016,2.016-2.016c1.112,0,2.016,0.904,2.016,2.016v0.807c0,0.222,0.182,0.403,0.403,0.403
			c0.221,0,0.403-0.182,0.403-0.403V2.019c0-1.112,0.904-2.016,2.016-2.016c1.112,0,2.016,0.904,2.016,2.016v1.988
			c0,1.233-0.36,2.428-1.045,3.454L22.581,8.064z"/>
		<path fill="#3F5CA9" d="M9.868,20.161l-1.613-0.807h-2.61V7.257H0V22.58h5.645v-1.613h2.229l1.613,0.807h0.997v-1.613H9.868
			L9.868,20.161z M4.032,20.967H1.613V8.87h2.419V20.967L4.032,20.967z"/>
		<path fill="#EBEBEB" d="M17.748,37.904c-0.146,0-0.291-0.002-0.438-0.008c-5.443-0.222-9.952-4.834-10.05-10.285
			c-0.051-2.813,1.001-5.468,2.962-7.484c1.729-1.778,2.682-3.997,2.682-6.245l4.032-2.589l1.613,1.613v8.062h5.645l0.945-0.971
			c1.991,1.98,3.087,4.617,3.087,7.426c0,2.882-1.146,5.566-3.225,7.563C23.032,36.878,20.469,37.904,17.748,37.904z"/>
		<path fill="#FBCC2A" d="M21.773,25.807v-0.398c0-1.557-1.267-2.826-2.822-2.826h-0.403v-1.613h-1.613v1.613h-0.403
			c-1.557,0-2.823,1.266-2.823,2.822c0,1.557,1.266,2.825,2.823,2.825h2.419c0.667,0,1.21,0.541,1.21,1.209
			c0,0.666-0.543,1.209-1.21,1.209h-2.419c-0.667,0-1.21-0.539-1.21-1.205v-0.406h-1.613v0.406c0,1.558,1.266,2.816,2.823,2.816
			h0.403v1.613h1.613v-1.613h0.403c1.556,0,2.822-1.266,2.822-2.82c0-1.558-1.267-2.821-2.822-2.821h-2.419
			c-0.667,0-1.21-0.544-1.21-1.21c0-0.667,0.543-1.209,1.21-1.209h2.419c0.667,0,1.209,0.546,1.209,1.213v0.398h1.613V25.807z"/>
		<path fill="#3F5CA9" d="M25.177,11.293c0.388-0.429,0.63-0.993,0.63-1.614c0-1.334-1.084-2.421-2.418-2.421h-3.002l-0.561-0.702
			l-6.302-1.802L8.579,8.87h-3.74v1.613h4.324l4.735-3.944l4.988,1.425l1.697,2.121c0.224,0.28,0.323,0.632,0.278,0.988
			c-0.045,0.354-0.229,0.673-0.518,0.888c-0.52,0.39-1.26,0.337-1.721-0.123l-1.627-1.627L12.4,13.888l1.007,1.26l3.469-2.775
			l0.606,0.607c0.088,0.089,0.188,0.161,0.286,0.236c0.06,0.588,0.273,0.935,0.604,1.3c-0.387,0.429-0.629,0.992-0.629,1.614
			s0.242,1.185,0.629,1.613c-0.387,0.429-0.629,0.989-0.629,1.611c0,1.335,1.085,2.419,2.419,2.419h3.226
			c1.334,0,2.42-1.084,2.42-2.418c0-0.622-0.242-1.183-0.63-1.612c0.388-0.429,0.63-0.99,0.63-1.613s-0.242-1.184-0.63-1.613
			c0.388-0.429,0.63-0.991,0.63-1.613C25.807,12.282,25.563,11.722,25.177,11.293z M23.387,20.161h-3.226
			c-0.444,0-0.806-0.362-0.806-0.807s0.361-0.806,0.806-0.806h3.226c0.444,0,0.807,0.362,0.807,0.806
			C24.193,19.799,23.832,20.161,23.387,20.161z M23.387,16.935h-3.226c-0.444,0-0.806-0.362-0.806-0.806
			c0-0.444,0.361-0.807,0.806-0.807h3.226c0.444,0,0.807,0.362,0.807,0.807C24.193,16.574,23.832,16.935,23.387,16.935z
			 M23.387,13.709h-2.988c0.322-0.096,0.633-0.246,0.914-0.457c0.405-0.305,0.707-0.706,0.905-1.156h1.169
			c0.444,0,0.807,0.362,0.807,0.806C24.193,13.347,23.832,13.709,23.387,13.709z M23.387,10.483h-0.945
			c-0.074-0.508-0.27-0.992-0.6-1.406l-0.166-0.206h1.711c0.444,0,0.807,0.362,0.807,0.806
			C24.193,10.121,23.832,10.483,23.387,10.483z"/>
		<path fill="#3F5CA9" d="M44.355,37.9v2.42h-5.401l-2.216-1.479l-6.797-2.408c-0.646-0.229-1.342-0.184-1.953,0.129
			c-0.611,0.312-1.059,0.842-1.258,1.498c-0.347,1.138,0.168,2.365,1.217,2.924l1.746,0.928l-2.539,0.009l-1.045-2.608
			c-0.342-0.854-1.16-1.408-2.083-1.408c-0.721,0-1.401,0.352-1.821,0.936c-0.42,0.585-0.534,1.344-0.304,2.021l0.244,0.727
			l-1.77-0.967c-0.563-0.311-1.236-0.369-1.844-0.163c-0.609,0.203-1.11,0.653-1.375,1.24c-0.518,1.144-0.041,2.476,1.085,3.028
			l3.979,1.965l8.262,1.683l10.724,0.017l3.146-0.631V50H50V37.9H44.355L44.355,37.9z M23.516,39.775
			c0.271-0.377,0.924-0.297,1.096,0.136l0.808,2.015l-1.453,0.006l-0.534-1.586C23.366,40.15,23.396,39.943,23.516,39.775z
			 M41.049,46.771H30.725l-7.882-1.576l-3.886-1.916c-0.341-0.17-0.486-0.571-0.329-0.92c0.081-0.183,0.229-0.313,0.417-0.377
			c0.188-0.064,0.387-0.045,0.561,0.052l2.77,1.514h7.653l3.183-1.592l-4.507-2.396c-0.369-0.195-0.551-0.629-0.43-1.029
			c0.07-0.232,0.228-0.42,0.441-0.529c0.217-0.109,0.463-0.125,0.688-0.046l6.521,2.288l2.537,1.691h5.893v4.178L41.049,46.771z
			 M48.387,48.386h-2.419v-8.868h2.419V48.386z"/>
	</g>
</g>
</svg>
