<?xml version="1.0" encoding="utf-8"?>
<!-- Generator: Adobe Illustrator 16.0.0, SVG Export Plug-In . SVG Version: 6.00 Build 0)  -->
<!DOCTYPE svg PUBLIC "-//W3C//DTD SVG 1.1//EN" "http://www.w3.org/Graphics/SVG/1.1/DTD/svg11.dtd">
<svg version="1.1" id="Layer_1" xmlns="http://www.w3.org/2000/svg" xmlns:xlink="http://www.w3.org/1999/xlink" x="0px" y="0px"
	 width="24px" height="24px" viewBox="0 0 24 24" enable-background="new 0 0 24 24" xml:space="preserve">
<path fill="#3F5CA9" d="M15,18.5c-2.51,0-4.68-1.42-5.76-3.5H15v-2H8.58c-0.05-0.33-0.08-0.66-0.08-1s0.03-0.67,0.08-1H15V9H9.24
	C10.32,6.92,12.5,5.5,15,5.5c1.609,0,3.09,0.59,4.23,1.57L21,5.3C19.41,3.87,17.3,3,15,3c-3.92,0-7.24,2.51-8.48,6H3v2h3.06
	C6.02,11.33,6,11.66,6,12s0.02,0.67,0.06,1H3v2h3.52c1.24,3.49,4.56,6,8.48,6c2.311,0,4.41-0.87,6-2.3l-1.779-1.771
	C18.09,17.91,16.62,18.5,15,18.5z"/>
<path fill="none" d="M0,0h24v24H0V0z"/>
</svg>
