<?xml version="1.0" encoding="utf-8"?>
<!-- Generator: Adobe Illustrator 16.0.0, SVG Export Plug-In . SVG Version: 6.00 Build 0)  -->
<!DOCTYPE svg PUBLIC "-//W3C//DTD SVG 1.1//EN" "http://www.w3.org/Graphics/SVG/1.1/DTD/svg11.dtd">
<svg version="1.1" id="Layer_1" xmlns="http://www.w3.org/2000/svg" xmlns:xlink="http://www.w3.org/1999/xlink" x="0px" y="0px"
	 width="24px" height="24px" viewBox="0 0 24 24" enable-background="new 0 0 24 24" xml:space="preserve">
<path fill="#3F5CA9" d="M20,6h-2.18C17.93,5.69,18,5.35,18,5c0-1.66-1.34-3-3-3c-1.05,0-1.96,0.54-2.5,1.35L12,4.02l-0.5-0.68
	C10.96,2.54,10.05,2,9,2C7.34,2,6,3.34,6,5c0,0.35,0.07,0.69,0.18,1H4C2.89,6,2.01,6.89,2.01,8L2,19c0,1.109,0.89,2,2,2h16
	c1.109,0,2-0.891,2-2V8C22,6.89,21.109,6,20,6z M15,4c0.55,0,1,0.45,1,1s-0.45,1-1,1s-1-0.45-1-1S14.45,4,15,4z M9,4
	c0.55,0,1,0.45,1,1S9.55,6,9,6S8,5.55,8,5S8.45,4,9,4z M20,19H4v-2h16V19z M20,14H4V8h5.08L7,10.83L8.62,12L11,8.76l1-1.36l1,1.36
	L15.38,12L17,10.83L14.92,8H20V14z"/>
<path fill="none" d="M0,0h24v24H0V0z"/>
</svg>
