<?xml version="1.0" encoding="utf-8"?>
<!-- Generator: Adobe Illustrator 16.0.0, SVG Export Plug-In . SVG Version: 6.00 Build 0)  -->
<!DOCTYPE svg PUBLIC "-//W3C//DTD SVG 1.1//EN" "http://www.w3.org/Graphics/SVG/1.1/DTD/svg11.dtd">
<svg version="1.1" id="Layer_1" xmlns="http://www.w3.org/2000/svg" xmlns:xlink="http://www.w3.org/1999/xlink" x="0px" y="0px"
	 width="24px" height="24px" viewBox="0 0 24 24" enable-background="new 0 0 24 24" xml:space="preserve">
<path fill="none" d="M0,0h24v24H0V0z"/>
<g>
	<path fill="#3F5CA9" d="M22,4H6C4.89,4,4.01,4.89,4.01,6L4.009,7.001C4.743,7.003,5.47,7.312,6,7.803V6h16v2H6.192
		C6.561,8.417,6.8,8.931,6.8,9.5V11c0.51,0,0.996,0.441,1.138,1H22v6H6v-1H4.001L4,18c0,1.109,0.89,2,2,2h16c1.109,0,2-0.891,2-2V6
		C24,4.89,23.109,4,22,4z"/>
	<path fill="#3F5CA9" d="M5.5,11V9.5c0-0.797-0.695-1.296-1.492-1.299L4.006,11H5.5z"/>
	<path fill="#3F5CA9" d="M2.5,11V9.5c0-0.8,0.7-1.3,1.5-1.3c0.003,0,0.005,0,0.008,0l0.001-1.2C4.006,7.001,4.003,7,4,7
		C2.6,7,1.2,8.101,1.2,9.5V11C0.6,11,0,11.601,0,12.2v3.501C0,16.4,0.6,17,1.2,17h2.801l0.005-6H2.5z"/>
	<path fill="#3F5CA9" d="M6.192,8C6.131,7.932,6.068,7.865,6,7.803L6.192,8z"/>
	<path fill="#3F5CA9" d="M6,17h0.7C7.4,17,8,16.4,8,15.801V12.3c0-0.105-0.037-0.201-0.062-0.3H6V17z"/>
</g>
</svg>
