<?xml version="1.0" encoding="utf-8"?>
<!-- Generator: Adobe Illustrator 16.0.0, SVG Export Plug-In . SVG Version: 6.00 Build 0)  -->
<!DOCTYPE svg PUBLIC "-//W3C//DTD SVG 1.1//EN" "http://www.w3.org/Graphics/SVG/1.1/DTD/svg11.dtd">
<svg version="1.1" id="Layer_1" xmlns="http://www.w3.org/2000/svg" xmlns:xlink="http://www.w3.org/1999/xlink" x="0px" y="0px"
	 width="24px" height="24px" viewBox="0 0 24 24" enable-background="new 0 0 24 24" xml:space="preserve">
<path fill="none" d="M0,0h24v24H0V0z"/>
<path fill="#3F5CA9" d="M20,4h-3V2c0-1.11-0.891-2-2-2H9C7.89,0,7,0.89,7,2v2H4C2.89,4,2,4.89,2,6v11c0,1.109,0.89,2,2,2h16
	c1.109,0,2-0.891,2-2V6C22,4.89,21.109,4,20,4z M9,2h6v2H9V2z M20,17H4v-2h16V17z M20,12H4V6h3v2h2V6h6v2h2V6h3V12z"/>
</svg>
